<svg xmlns="http://www.w3.org/2000/svg" width="16" height="16" viewBox="0 0 16 16" role="img" aria-label="HTML preview">
  <path fill="#424242" d="M3 1.5A1.5 1.5 0 0 1 4.5 0h4.8L13 3.7v3.2a5.8 5.8 0 0 0-1-.5V4H9.3A1.3 1.3 0 0 1 8 2.7V1H4.5a.5.5 0 0 0-.5.5v13a.5.5 0 0 0 .5.5h2.1c.2.4.5.7.8 1H4.5A1.5 1.5 0 0 1 3 14.5v-13ZM9 1.4V3h1.6L9 1.4ZM5.5 5.9 3.9 7.5l1.6 1.6.7-.7-.9-.9.9-.9-.7-.7Zm3.1 0-.7.7.5.5c.2-.1.5-.3.8-.4l-.6-.8ZM7.3 5.5l-1 3.4.9.3 1-3.4-.9-.3Z"/>
  <path fill="#424242" d="M11 8a4.8 4.8 0 0 0-4.4 3 4.8 4.8 0 0 0 8.8 0A4.8 4.8 0 0 0 11 8Zm0 5.2A2.2 2.2 0 1 1 11 8.8a2.2 2.2 0 0 1 0 4.4Zm0-1A1.2 1.2 0 1 0 11 9.8a1.2 1.2 0 0 0 0 2.4Z"/>
</svg>
