<svg xmlns="http://www.w3.org/2000/svg" width="16" height="16" viewBox="0 0 16 16" role="img" aria-label="HTML book">
  <path fill="#424242" d="M2 2.5A1.5 1.5 0 0 1 3.5 1H7c.6 0 1.1.2 1.5.6C8.9 1.2 9.4 1 10 1h2.5A1.5 1.5 0 0 1 14 2.5V13h-4c-.5 0-1 .2-1.4.6l-.1.1-.1-.1A2 2 0 0 0 7 13H2V2.5ZM3.2 3v8.8H7c.3 0 .7.1 1 .2V3.1c-.3-.1-.6-.1-1-.1H3.2Zm6.8 0c-.4 0-.7 0-1 .2V12c.3-.1.7-.2 1-.2h2.8V3H10ZM4.6 5.4l1.1 1.1-1.1 1.1.6.6L6.9 6.5 5.2 4.8l-.6.6Zm6.2-.6L9.1 6.5l1.7 1.7.6-.6-1.1-1.1 1.1-1.1-.6-.6Z"/>
</svg>
